<svg width="84" height="16" viewBox="0 0 84 16" fill="none" xmlns="http://www.w3.org/2000/svg">
<path d="M0 0.00219727V15.3369H1.98886V8.31388H9.86057V15.3369H11.8494V0.00219727H9.86057V6.59571H1.98886V0.00219727H0ZM15.1087 0.00219727V15.3369H25.4926V13.6188H17.0975V8.31388H24.8646V6.59571H17.0975V1.72038H25.4298V0.00219727H15.1087ZM27.9071 0.00219727V15.3369H37.8095V13.6188H29.8959V0.00219727H27.9071ZM43.3853 9.06559L49.1007 0.00219727H46.8397L42.4642 7.30446L37.984 0.00219727H35.6183L41.3965 9.06559V15.3369H43.3853V9.06559ZM50.7847 0.00219727V15.3369H52.7735V8.31388H59.6404V6.59571H52.7735V1.72038H60.6034V0.00219727H50.7847ZM62.8062 0.00219727V15.3369H72.7086V13.6188H64.795V0.00219727H62.8062ZM78.2846 9.06559L84 0.00219727H81.739L77.3635 7.30446L72.8833 0.00219727H70.5176L76.2958 9.06559V15.3369H78.2846V9.06559Z" fill="black"/>
</svg>
