<svg width="84" height="16" fill="none" xmlns="http://www.w3.org/2000/svg"><path d="M0 .002v15.335h1.989V8.314H9.86v7.023h1.988V.002H9.861v6.594H1.989V.002H0zm15.109 0v15.335h10.384v-1.718h-8.395V8.314h7.767V6.596h-7.767V1.72h8.332V.002H15.109zm12.798 0v15.335h9.902v-1.718h-7.913V.002h-1.989zm15.478 9.064L49.101.002H46.84l-4.376 7.302-4.48-7.302h-2.366l5.779 9.064v6.27h1.988v-6.27zm7.4-9.064v15.335h1.989V8.314h6.866V6.596h-6.867V1.72h7.83V.002h-9.818zm12.021 0v15.335h9.903v-1.718h-7.914V.002h-1.989zm15.479 9.064L84 .002h-2.261l-4.376 7.302-4.48-7.302h-2.365l5.778 9.064v6.27h1.989v-6.27z" fill="#000"/></svg>