<svg width="37" height="41" fill="none" xmlns="http://www.w3.org/2000/svg"><path d="M33.108 16.378H27.23v-.81a.883.883 0 00-.883-.884H10.3a.883.883 0 00-.883.883v.811H3.54a.883.883 0 00-.883.883v3.998c0 1.092.426 2.12 1.199 2.893a4.065 4.065 0 002.893 1.198h2.894c.845 3.674 3.97 6.487 7.798 6.866v3.974h-2.364a2.48 2.48 0 00-2.476 2.476v1.451c0 .488.395.883.883.883h9.68a.883.883 0 00.883-.883v-1.451a2.48 2.48 0 00-2.476-2.476h-2.364v-3.974c3.829-.379 6.953-3.192 7.798-6.866H29.9a4.096 4.096 0 004.092-4.091V17.26a.883.883 0 00-.883-.883zM22.282 38.666v.569h-7.916v-.57c0-.391.32-.71.711-.71h6.494a.71.71 0 01.71.71zM9.418 23.585h-2.67a2.31 2.31 0 01-1.644-.681 2.31 2.31 0 01-.681-1.645v-3.115h4.995v5.44zm16.047-.233c0 3.938-3.203 7.142-7.141 7.142s-7.142-3.204-7.142-7.142V16.45h14.283v6.902zm1.765-5.208h4.995v3.115a2.329 2.329 0 01-2.326 2.326h-2.67v-5.441z" fill="#37373F"/><path d="M14.58 8.13l-.663 3.495a.883.883 0 001.292.938l3.119-1.71 3.12 1.71a.882.882 0 001.291-.938l-.662-3.495 2.59-2.439a.883.883 0 00-.493-1.518l-3.53-.45L19.127.506a.883.883 0 00-1.596 0L16.01 3.723l-3.529.45a.883.883 0 00-.493 1.518l2.59 2.439zm2.135-2.717a.882.882 0 00.686-.499l.927-1.963.927 1.963c.129.273.387.46.686.499l2.154.275-1.58 1.488a.883.883 0 00-.263.807l.404 2.134-1.904-1.044a.882.882 0 00-.848 0L16 10.116l.404-2.133a.883.883 0 00-.262-.807L14.56 5.688l2.154-.275zm19.887 2.512a.883.883 0 00-.727-.603l-2.545-.324-1.095-2.32a.883.883 0 00-1.596 0l-1.095 2.32-2.545.324a.883.883 0 00-.493 1.519l1.867 1.758-.477 2.52a.882.882 0 001.291.939l2.25-1.233 2.25 1.233a.882.882 0 001.291-.939l-.477-2.52 1.867-1.758a.883.883 0 00.234-.916zm-3.664 1.72a.883.883 0 00-.262.807l.22 1.159-1.035-.567a.882.882 0 00-.849 0l-1.033.567.22-1.159a.883.883 0 00-.263-.807l-.859-.808 1.17-.15a.882.882 0 00.686-.498l.504-1.066.503 1.066c.129.273.387.46.686.499l1.17.149-.858.808zm-27.729 3.18l2.25 1.233a.882.882 0 001.29-.939l-.477-2.52 1.868-1.758a.883.883 0 00-.493-1.518l-2.545-.325-1.095-2.32a.883.883 0 00-1.596 0l-1.095 2.32-2.545.324a.883.883 0 00-.493 1.519l1.868 1.758-.478 2.52a.882.882 0 001.291.939l2.25-1.233zm-1.19-4.137a.882.882 0 00.686-.499l.504-1.066.503 1.066c.129.273.388.46.687.499l1.17.149-.86.808a.883.883 0 00-.261.807l.22 1.159-1.035-.567a.882.882 0 00-.849 0l-1.034.567.22-1.159a.883.883 0 00-.262-.807l-.859-.808 1.17-.15z" fill="#FC9B09"/></svg>