<svg width="11" height="19" viewBox="0 0 11 19" fill="none" xmlns="http://www.w3.org/2000/svg">
<path fill-rule="evenodd" clip-rule="evenodd" d="M0.361709 8.56006L7.90971 0.390137C8.01882 0.267464 8.15267 0.169283 8.30244 0.102051C8.45222 0.0348184 8.61453 -6.09025e-08 8.7787 -5.37261e-08C8.94288 -4.65498e-08 9.1052 0.0348184 9.25497 0.102051C9.40475 0.169283 9.5386 0.267464 9.64771 0.390137C9.87964 0.650272 10.0078 0.986931 10.0078 1.33545C10.0078 1.68397 9.87964 2.02014 9.6477 2.28027L2.9687 9.50049L9.6477 16.7305C9.87954 16.9887 10.0078 17.3234 10.0078 17.6704C10.0078 18.0174 9.87954 18.3521 9.6477 18.6104C9.5385 18.733 9.40457 18.8312 9.25471 18.8984C9.10485 18.9657 8.94247 19.0005 8.77821 19.0005C8.61396 19.0005 8.45156 18.9657 8.3017 18.8984C8.15184 18.8312 8.01791 18.733 7.90871 18.6104L0.361709 10.4502C0.129234 10.1884 0.00110679 9.85059 0.00170857 9.50049C-0.000526828 9.15308 0.127981 8.8171 0.361709 8.56006Z" fill="#C7C7C7"/>
</svg>
