<svg width="37" height="41" viewBox="0 0 37 41" fill="none" xmlns="http://www.w3.org/2000/svg">
<path d="M33.1079 16.3785H27.231V15.5672C27.231 15.0797 26.8358 14.6844 26.3483 14.6844H10.2996C9.81208 14.6844 9.41688 15.0797 9.41688 15.5672V16.3785H3.53994C3.05243 16.3785 2.65723 16.7737 2.65723 17.2612V21.2586C2.65723 22.3514 3.08286 23.379 3.8557 24.1518C4.62854 24.9246 5.65602 25.3502 6.7489 25.3502H9.64294C10.4881 29.0243 13.6123 31.8375 17.4413 32.216V36.1895H15.0773C13.7118 36.1895 12.6009 37.3004 12.6009 38.6659V40.1173C12.6009 40.6048 12.9961 41 13.4836 41H23.1644C23.6519 41 24.0471 40.6048 24.0471 40.1173V38.6659C24.0471 37.3004 22.9362 36.1895 21.5708 36.1895H19.2068V32.2159C23.0358 31.8374 26.1599 29.0243 27.0051 25.3502H29.899C32.1552 25.3502 33.9908 23.5147 33.9908 21.2585V17.2612C33.9906 16.7737 33.5954 16.3785 33.1079 16.3785ZM22.2816 38.6659V39.2346H14.3662V38.6659C14.3662 38.2738 14.6852 37.955 15.0772 37.955H21.5707C21.9627 37.9549 22.2816 38.2738 22.2816 38.6659ZM9.41831 23.5848H6.74882C6.12747 23.5848 5.54328 23.3429 5.10403 22.9035C4.66452 22.4641 4.42265 21.8799 4.42265 21.2586V18.144H9.41839V23.5848H9.41831ZM25.4655 23.3525C25.4655 27.2904 22.2618 30.4942 18.3239 30.4942C14.386 30.4942 11.1823 27.2904 11.1823 23.3525V16.4499H25.4655V23.3525ZM27.2295 18.1439H32.2253V21.2585C32.2253 22.5412 31.1817 23.5848 29.899 23.5848H27.2295V18.1439Z" fill="#37373F"/>
<path d="M14.5793 8.12971L13.917 11.6248C13.8534 11.9604 13.9891 12.3025 14.2655 12.5033C14.5419 12.704 14.9091 12.7274 15.2087 12.5632L18.328 10.8533L21.4475 12.5632C21.5802 12.6359 21.7262 12.6718 21.8717 12.6718C22.0546 12.6718 22.2367 12.6151 22.3907 12.5033C22.6669 12.3025 22.8026 11.9604 22.7391 11.6248L22.077 8.12971L24.6669 5.6914C24.9156 5.45727 25.0069 5.10074 24.9014 4.7759C24.7958 4.45106 24.5124 4.21626 24.1736 4.17305L20.6447 3.72287L19.1262 0.505921C18.9804 0.197055 18.6696 0 18.328 0C17.9864 0 17.6755 0.197055 17.5298 0.505921L16.0112 3.72287L12.4824 4.17305C12.1436 4.21626 11.8602 4.45106 11.7546 4.7759C11.6491 5.10066 11.7404 5.45736 11.9891 5.6914L14.5793 8.12971ZM16.7146 5.41288C17.0137 5.37472 17.2725 5.18666 17.4011 4.91402L18.328 2.95053L19.2548 4.91402C19.3835 5.18657 19.6423 5.37463 19.9413 5.41288L22.0953 5.6877L20.5144 7.17596C20.295 7.3826 20.1962 7.68684 20.2522 7.98301L20.6564 10.1165L18.7523 9.07278C18.6201 9.00032 18.474 8.96408 18.328 8.96408C18.182 8.96408 18.0359 9.00032 17.9037 9.07278L15.9997 10.1164L16.404 7.98301C16.4602 7.68692 16.3612 7.38251 16.1418 7.17596L14.5608 5.6877L16.7146 5.41288Z" fill="#FC9B09"/>
<path d="M36.6024 7.92533C36.4968 7.6005 36.2135 7.36569 35.8747 7.32248L33.3301 6.99781L32.2351 4.67804C32.0893 4.36917 31.7784 4.17212 31.4369 4.17212C31.0954 4.17212 30.7844 4.36917 30.6387 4.67804L29.5436 6.99781L26.999 7.32248C26.6602 7.36569 26.3768 7.6005 26.2712 7.92533C26.1657 8.25009 26.257 8.60671 26.5057 8.84084L28.3735 10.599L27.8959 13.1193C27.8322 13.4548 27.9679 13.7971 28.2443 13.9977C28.3982 14.1095 28.5803 14.1664 28.7633 14.1664C28.9087 14.1664 29.0548 14.1304 29.1875 14.0577L31.4369 12.8247L33.6864 14.0577C33.9859 14.2219 34.3532 14.1986 34.6295 13.9977C34.9058 13.797 35.0415 13.4549 34.978 13.1193L34.5005 10.599L36.3681 8.84084C36.6166 8.60671 36.7079 8.25017 36.6024 7.92533ZM32.938 9.64528C32.7186 9.85184 32.6197 10.1562 32.6758 10.4523L32.8953 11.611L31.8611 11.0442C31.7289 10.9717 31.5828 10.9355 31.4368 10.9355C31.2908 10.9355 31.1447 10.9717 31.0125 11.0442L29.9786 11.6109L30.1981 10.4523C30.2542 10.1562 30.1553 9.85184 29.9358 9.6452L29.0773 8.83705L30.2469 8.68783C30.5459 8.64975 30.8048 8.46169 30.9334 8.18906L31.4367 7.12274L31.94 8.18906C32.0686 8.46161 32.3275 8.64966 32.6265 8.68783L33.7963 8.83705L32.938 9.64528Z" fill="#FC9B09"/>
<path d="M5.20877 12.8248L7.45826 14.0578C7.75779 14.222 8.12508 14.1987 8.40141 13.9978C8.67766 13.7971 8.81335 13.455 8.74988 13.1194L8.27237 10.5991L10.14 8.84092C10.3887 8.60679 10.48 8.25026 10.3745 7.92542C10.2689 7.60058 9.98551 7.36578 9.64671 7.32257L7.10206 6.99781L6.00699 4.67804C5.86122 4.36917 5.55025 4.17212 5.20877 4.17212C4.86728 4.17212 4.55632 4.36917 4.41054 4.67804L3.31556 6.99781L0.770989 7.32248C0.432195 7.36569 0.148802 7.6005 0.0432124 7.92533C-0.0622929 8.25009 0.029005 8.60671 0.277678 8.84084L2.1455 10.599L1.66783 13.1193C1.60419 13.4548 1.73987 13.7971 2.01629 13.9977C2.17022 14.1095 2.35231 14.1664 2.53524 14.1664C2.68076 14.1664 2.82679 14.1304 2.95944 14.0577L5.20877 12.8248ZM4.01895 8.68783C4.31798 8.64975 4.57683 8.46169 4.70545 8.18906L5.20877 7.12274L5.71208 8.18906C5.84071 8.4616 6.09955 8.64966 6.39858 8.68783L7.56839 8.83705L6.70988 9.64528C6.49047 9.85184 6.3916 10.1562 6.44768 10.4523L6.66718 11.611L5.63297 11.0442C5.50082 10.9717 5.35471 10.9355 5.20868 10.9355C5.06266 10.9355 4.91655 10.9717 4.78439 11.0442L3.75044 11.6109L3.96994 10.4523C4.0261 10.1562 3.92715 9.85184 3.70773 9.6452L2.84915 8.83705L4.01895 8.68783Z" fill="#FC9B09"/>
</svg>
